PathFileType	4	(X/Y/Z)	5_coords_data.trc
DataRate	CameraRate	NumFrames	NumMarkers	Units	OrigDataRate	OrigDataStartFrame	OrigNumFrames
30.0	30.0	6	21	m	30.0	20	59
Frame#	Time	THUMB_TIP	THUMB_IP	THUMB_MCP	THUMB_CMC	INDEX_TIP	INDEX_DIP	INDEX_PIP	INDEX_MCP	MIDDLE_TIP	MIDDLE_DIP	MIDDLE_PIP	MIDDLE_MCP	RING_TIP	RING_DIP	RING_PIP	RING_MCP	PINKY_TIP	PINKY_DIP	PINKY_PIP	PINKY_MCP	WRIST
X1	Y1	Z1	X2	Y2	Z2	X3	Y3	Z3	X4	Y4	Z4	X5	Y5	Z5	X6	Y6	Z6	X7	Y7	Z7	X8	Y8	Z8	X9	Y9	Z9	X10	Y10	Z10	X11	Y11	Z11	X12	Y12	Z12	X13	Y13	Z13	X14	Y14	Z14	X15	Y15	Z15	X16	Y16	Z16	X17	Y17	Z17	X18	Y18	Z18	X19	Y19	Z19	X20	Y20	Z20	X21	Y21	Z21
19	0.6333333333333333	-0.028161100387573242	-0.1513209991455078	0.9692009887695312	-0.02369020080566406	-0.13130099487304686	0.9855609741210938	-0.02542639923095703	-0.12122799682617187	1.0151199951171874	-0.022124099731445312	-0.09209719848632812	1.031010009765625	-0.009599650382995605	-0.09725060272216797	1.0175499877929688	-0.004632030010223389	-0.1009520034790039	0.9972030029296876	-0.00882938003540039	-0.10637400054931641	0.9747869873046875	-0.0486609001159668	-0.10576300048828124	0.9815780029296876	-0.011819999694824218	-0.08487889862060546	1.01527001953125	-0.002892489910125732	-0.08434169769287109	0.9975139770507813	-0.008342180252075195	-0.08689689636230469	0.9700079956054688	-0.05025329971313477	-0.08626950073242187	0.9776530151367188	-0.01725480079650879	-0.0697782974243164	1.0143800048828124	-0.005528359889984131	-0.0683844985961914	0.9991799926757813	-0.007624670028686524	-0.06769159698486328	0.9732219848632813	-0.04742229843139648	-0.06754759979248047	0.97885400390625	-0.01915239906311035	-0.05589830017089844	1.0113699951171875	-0.007744599819183349	-0.054454898834228514	0.9973800048828125	-0.009848779678344726	-0.052331501007080075	0.9800159912109375	-0.03916559982299805	-0.0497781982421875	0.9820339965820313	-0.03456719970703125	-0.061463401794433596	1.046989990234375
20	0.6666666666666666	-0.02822599983215332	-0.1512790069580078	0.969333984375	-0.023772899627685546	-0.13123100280761718	0.9856400146484375	-0.025521499633789062	-0.1211500015258789	1.0151199951171874	-0.02224130058288574	-0.09206400299072266	1.03125	-0.009202719688415528	-0.09708779907226563	1.017969970703125	-0.004694409847259521	-0.10085900115966796	0.9974130249023437	-0.008867899894714355	-0.10626300048828125	0.9748880004882813	-0.04877539825439453	-0.10569100189208984	0.9817069702148438	-0.01218239974975586	-0.08475160217285156	1.01572998046875	-0.0029574000835418703	-0.08422450256347656	0.9976259765625	-0.008382369995117187	-0.08676329803466797	0.97010498046875	-0.05030609893798828	-0.08619229888916016	0.9777550048828125	-0.01729490089416504	-0.06970719909667969	1.014530029296875	-0.005556419849395752	-0.06827349853515625	0.9992780151367188	-0.007715849876403808	-0.06759970092773437	0.9732960205078125	-0.047493301391601565	-0.06746579742431641	0.9790079956054687	-0.01929560089111328	-0.05569469833374024	1.011260009765625	-0.007817299842834472	-0.05428990173339844	0.9974669799804687	-0.009933950424194336	-0.05219150161743164	0.9801019897460937	-0.03927389907836914	-0.04969540023803711	0.9822269897460938	-0.03460649871826172	-0.061436100006103514	1.0471600341796874
21	0.7	-0.028413299560546876	-0.15121600341796876	0.9694010009765625	-0.023927999496459962	-0.13116499328613282	0.985708984375	-0.02561790084838867	-0.12108499908447265	1.01525	-0.022175699234008788	-0.09204090118408204	1.031280029296875	-0.009524820327758789	-0.09700930023193359	1.0180800170898439	-0.004741399765014648	-0.10079299926757812	0.997468994140625	-0.00899372959136963	-0.10619300079345703	0.974885009765625	-0.04876070022583008	-0.10560299682617187	0.9817570190429687	-0.012007800102233887	-0.08450430297851562	1.0164000244140625	-0.0030300099849700918	-0.08418199920654297	0.9977739868164063	-0.008568289756774903	-0.08668000030517578	0.970114013671875	-0.05041839981079101	-0.08609120178222657	0.977885986328125	-0.017294599533081056	-0.06950810241699219	1.0147000122070313	-0.005641550064086914	-0.06820259857177734	0.9993300170898437	-0.007805890083312989	-0.06747360229492187	0.973385986328125	-0.047610801696777345	-0.06737210083007812	0.9791380004882813	-0.019283599853515625	-0.05567679977416992	1.011489990234375	-0.007932680130004883	-0.054217800140380856	0.9976079711914062	-0.009998120307922364	-0.05211890029907226	0.9801959838867188	-0.03934159851074219	-0.04959199905395508	0.9823389892578125	-0.034626499176025394	-0.06134889984130859	1.0473499755859375
22	0.7333333333333333	-0.028670299530029298	-0.1511909942626953	0.96943701171875	-0.024153400421142578	-0.1311739959716797	0.9857349853515625	-0.02577109909057617	-0.12106199645996094	1.015260009765625	-0.022365100860595705	-0.09202279663085937	1.0313699951171875	-0.00946897029876709	-0.09693350219726563	1.0180900268554687	-0.004807869911193848	-0.10076599884033204	0.9974149780273438	-0.009105270385742187	-0.10614299774169922	0.9749760131835937	-0.048974800109863284	-0.10551200103759766	0.9817899780273438	-0.012640800476074219	-0.08476730346679688	1.0168900146484374	-0.003123199939727783	-0.0841427001953125	0.9977890014648437	-0.008697110176086426	-0.08664089965820312	0.9702059936523437	-0.05053630065917969	-0.08601360321044922	0.9779719848632813	-0.017460800170898436	-0.06958889770507813	1.01472998046875	-0.005753419876098633	-0.06817980194091797	0.9994409790039063	-0.007942110061645509	-0.06741429901123047	0.973489990234375	-0.04772930145263672	-0.06728140258789063	0.979239013671875	-0.019220199584960938	-0.05580590057373047	1.0118800048828125	-0.00798613977432251	-0.05422560119628906	0.9976630249023437	-0.010182100296020508	-0.05205400085449219	0.9802960205078125	-0.03947489929199219	-0.04950550079345703	0.9824810180664062	-0.03475579833984375	-0.061390098571777345	1.0474300537109376
23	0.7666666666666667	-0.028968700408935545	-0.1513300018310547	0.9696439819335938	-0.024417400360107422	-0.1312729949951172	0.9859979858398438	-0.025990999221801758	-0.12114600372314453	1.015510009765625	-0.022569099426269532	-0.09192939758300782	1.03156005859375	-0.009945560455322265	-0.09708799743652344	1.018760009765625	-0.004972479820251465	-0.10086599731445313	0.9975709838867187	-0.009260149955749511	-0.10627100372314453	0.9751110229492187	-0.0490984001159668	-0.10560700225830078	0.9820399780273438	-0.012393500328063965	-0.08473179626464844	1.01722998046875	-0.003326839923858642	-0.0842779998779297	0.9978410034179688	-0.008781479835510255	-0.08674829864501953	0.9703809814453125	-0.05069240188598633	-0.08608329772949219	0.9781420288085938	-0.017541200637817382	-0.06964109802246093	1.0148800048828126	-0.00585890007019043	-0.0682782974243164	0.9995659790039062	-0.00807450008392334	-0.06751429748535157	0.9736229858398437	-0.0478827018737793	-0.06736380004882812	0.9794580078125	-0.01922540092468262	-0.05587329864501953	1.0121599731445312	-0.008151470184326172	-0.054302101135253904	0.9978400268554688	-0.010265299797058106	-0.05214979934692383	0.9804840087890625	-0.039641799926757815	-0.04958110046386719	0.982697998046875	-0.03484820175170898	-0.06144570159912109	1.047530029296875
24	0.8	-0.02920249938964844	-0.15147300720214843	0.9698599853515625	-0.02457900047302246	-0.13139500427246092	0.9861580200195312	-0.02616469955444336	-0.12127799987792968	1.01577001953125	-0.022679500579833985	-0.09213749694824219	1.03156005859375	-0.009653470039367677	-0.09732769775390625	1.018469970703125	-0.005148890018463134	-0.10098000335693359	0.9977639770507812	-0.009340510368347169	-0.10637200164794922	0.975260009765625	-0.04928099822998047	-0.10570500183105469	0.9821190185546875	-0.012670900344848633	-0.0848948974609375	1.0173599853515625	-0.003294179916381836	-0.08436499786376953	0.9980020141601562	-0.008897470474243165	-0.08686209869384766	0.9705009765625	-0.050784500122070315	-0.08616280364990235	0.9782739868164062	-0.017650400161743164	-0.06977749633789063	1.015	-0.005887209892272949	-0.06839820098876953	0.9997830200195312	-0.00817747974395752	-0.06764710235595703	0.97372998046875	-0.04792070007324219	-0.06745749664306641	0.9795369873046875	-0.019581699371337892	-0.05590719985961914	1.012	-0.008205320358276367	-0.05439130020141601	0.9978920288085937	-0.010387299537658691	-0.05228939819335938	0.9805079956054688	-0.039754600524902345	-0.049703399658203126	0.9827639770507812	-0.035025699615478516	-0.06150189971923828	1.047719970703125
